<?xml version="1.0" encoding="UTF-8" standalone="no"?>
<!DOCTYPE svg PUBLIC "-//W3C//DTD SVG 1.1//EN"
 "http://www.w3.org/Graphics/SVG/1.1/DTD/svg11.dtd">
<!-- Generated by graphviz version 2.47.0 (20210316.0004)
 -->
<!-- Title: dependencies Pages: 1 -->
<svg width="1112pt" height="222pt"
 viewBox="0.00 0.00 1112.00 222.00" xmlns="http://www.w3.org/2000/svg" xmlns:xlink="http://www.w3.org/1999/xlink">
<g id="graph0" class="graph" transform="scale(1 1) rotate(0) translate(4 218)">
<title>dependencies</title>
<polygon fill="white" stroke="transparent" points="-4,4 -4,-218 1108,-218 1108,4 -4,4"/>
<text text-anchor="start" x="531.01" y="-42.4" font-family="Times-12" font-weight="bold" font-size="14.00">Legend</text>
<polygon fill="#ffffb3" stroke="transparent" points="318,-10 318,-30 338,-30 338,-10 318,-10"/>
<text text-anchor="start" x="341.63" y="-15.4" font-family="Times-12" font-size="14.00"> &#160;Declarations</text>
<polygon fill="#8dd3c7" stroke="transparent" points="431,-10 431,-30 451,-30 451,-10 431,-10"/>
<text text-anchor="start" x="454.73" y="-15.4" font-family="Times-12" font-size="14.00"> &#160;Module</text>
<polygon fill="#80b1d3" stroke="transparent" points="517,-10 517,-30 537,-30 537,-10 517,-10"/>
<text text-anchor="start" x="540.78" y="-15.4" font-family="Times-12" font-size="14.00"> &#160;Bootstrap</text>
<polygon fill="#fdb462" stroke="transparent" points="614,-10 614,-30 634,-30 634,-10 614,-10"/>
<text text-anchor="start" x="637.67" y="-15.4" font-family="Times-12" font-size="14.00"> &#160;Providers</text>
<polygon fill="#fb8072" stroke="transparent" points="710,-10 710,-30 730,-30 730,-10 710,-10"/>
<text text-anchor="start" x="733.73" y="-15.4" font-family="Times-12" font-size="14.00"> &#160;Exports</text>
<g id="clust13" class="cluster">
<title>cluster_PostsModule</title>
<polygon fill="none" stroke="black" stroke-dasharray="1,5" points="546,-70 546,-198 814,-198 814,-70 546,-70"/>
</g>
<g id="clust15" class="cluster">
<title>cluster_PostsModule_imports</title>
<polygon fill="none" stroke="black" points="698,-78 698,-130 806,-130 806,-78 698,-78"/>
</g>
<g id="clust18" class="cluster">
<title>cluster_PostsModule_providers</title>
<polygon fill="none" stroke="black" points="554,-78 554,-130 690,-130 690,-78 554,-78"/>
</g>
<g id="clust1" class="cluster">
<title>cluster_AppModule</title>
<polygon fill="none" stroke="black" stroke-dasharray="1,5" points="280,-70 280,-198 538,-198 538,-70 280,-70"/>
</g>
<g id="clust6" class="cluster">
<title>cluster_AppModule_providers</title>
<polygon fill="none" stroke="black" points="400,-78 400,-130 530,-130 530,-78 400,-78"/>
</g>
<g id="clust3" class="cluster">
<title>cluster_AppModule_imports</title>
<polygon fill="none" stroke="black" points="288,-78 288,-130 392,-130 392,-78 288,-78"/>
</g>
<g id="clust19" class="cluster">
<title>cluster_UsersModule</title>
<polygon fill="none" stroke="black" stroke-dasharray="1,5" points="822,-138 822,-206 1096,-206 1096,-138 822,-138"/>
</g>
<g id="clust22" class="cluster">
<title>cluster_UsersModule_exports</title>
<polygon fill="none" stroke="black" points="978,-146 978,-198 1088,-198 1088,-146 978,-146"/>
</g>
<g id="clust24" class="cluster">
<title>cluster_UsersModule_providers</title>
<polygon fill="none" stroke="black" points="830,-146 830,-198 970,-198 970,-146 830,-146"/>
</g>
<g id="clust7" class="cluster">
<title>cluster_AuthModule</title>
<polygon fill="none" stroke="black" stroke-dasharray="1,5" points="8,-138 8,-206 272,-206 272,-138 8,-138"/>
</g>
<g id="clust10" class="cluster">
<title>cluster_AuthModule_exports</title>
<polygon fill="none" stroke="black" points="158,-146 158,-198 264,-198 264,-146 158,-146"/>
</g>
<g id="clust12" class="cluster">
<title>cluster_AuthModule_providers</title>
<polygon fill="none" stroke="black" points="16,-146 16,-198 150,-198 150,-146 16,-146"/>
</g>
<!-- AuthModule -->
<g id="node1" class="node">
<title>AuthModule</title>
<polygon fill="#8dd3c7" stroke="black" points="383.55,-122 380.55,-126 359.55,-126 356.55,-122 296.45,-122 296.45,-86 383.55,-86 383.55,-122"/>
<text text-anchor="middle" x="340" y="-99.8" font-family="Times,serif" font-size="14.00">AuthModule</text>
</g>
<!-- UsersModule -->
<g id="node3" class="node">
<title>UsersModule</title>
<polygon fill="#8dd3c7" stroke="black" points="797.92,-122 794.92,-126 773.92,-126 770.92,-122 706.08,-122 706.08,-86 797.92,-86 797.92,-122"/>
<text text-anchor="middle" x="752" y="-99.8" font-family="Times,serif" font-size="14.00">UsersModule</text>
</g>
<!-- AuthModule&#45;&gt;UsersModule -->
<g id="edge9" class="edge">
<title>AuthModule&#45;&gt;UsersModule</title>
<path fill="none" stroke="black" d="M318.11,-122.2C318.11,-128.03 318.11,-133 318.11,-133 318.11,-133 724.57,-133 724.57,-133 724.57,-133 724.57,-131.92 724.57,-131.92"/>
<polygon fill="black" stroke="black" points="728.07,-132.2 724.57,-122.2 721.07,-132.2 728.07,-132.2"/>
</g>
<!-- AppModule -->
<g id="node4" class="node">
<title>AppModule</title>
<polygon fill="#8dd3c7" stroke="black" points="517.66,-190 514.66,-194 493.66,-194 490.66,-190 434.34,-190 434.34,-154 517.66,-154 517.66,-190"/>
<text text-anchor="middle" x="476" y="-167.8" font-family="Times,serif" font-size="14.00">AppModule</text>
</g>
<!-- AuthModule&#45;&gt;AppModule -->
<g id="edge1" class="edge">
<title>AuthModule&#45;&gt;AppModule</title>
<path fill="none" stroke="black" d="M361.89,-122.27C361.89,-140.56 361.89,-166 361.89,-166 361.89,-166 424.16,-166 424.16,-166"/>
<polygon fill="black" stroke="black" points="424.16,-169.5 434.16,-166 424.16,-162.5 424.16,-169.5"/>
</g>
<!-- AuthService  -->
<g id="node6" class="node">
<title>AuthService </title>
<polygon fill="#fb8072" stroke="black" points="255.98,-190 166.02,-190 166.02,-154 255.98,-154 255.98,-190"/>
<text text-anchor="middle" x="211" y="-167.8" font-family="Times,serif" font-size="14.00">AuthService </text>
</g>
<!-- AuthModule&#45;&gt;AuthService  -->
<g id="edge5" class="edge">
<title>AuthModule&#45;&gt;AuthService </title>
<path fill="none" stroke="black" stroke-dasharray="5,2" d="M340,-122.29C340,-144.21 340,-178 340,-178 340,-178 265.76,-178 265.76,-178"/>
<polygon fill="black" stroke="black" points="265.76,-174.5 255.76,-178 265.76,-181.5 265.76,-174.5"/>
</g>
<!-- PostsModule -->
<g id="node2" class="node">
<title>PostsModule</title>
<polygon fill="#8dd3c7" stroke="black" points="666.61,-190 663.61,-194 642.61,-194 639.61,-190 577.39,-190 577.39,-154 666.61,-154 666.61,-190"/>
<text text-anchor="middle" x="622" y="-167.8" font-family="Times,serif" font-size="14.00">PostsModule</text>
</g>
<!-- PostsModule&#45;&gt;AppModule -->
<g id="edge2" class="edge">
<title>PostsModule&#45;&gt;AppModule</title>
<path fill="none" stroke="black" d="M577.4,-172C577.4,-172 527.83,-172 527.83,-172"/>
<polygon fill="black" stroke="black" points="527.83,-168.5 517.83,-172 527.83,-175.5 527.83,-168.5"/>
</g>
<!-- UsersModule&#45;&gt;PostsModule -->
<g id="edge7" class="edge">
<title>UsersModule&#45;&gt;PostsModule</title>
<path fill="none" stroke="black" d="M761.14,-122.29C761.14,-144.21 761.14,-178 761.14,-178 761.14,-178 676.79,-178 676.79,-178"/>
<polygon fill="black" stroke="black" points="676.79,-174.5 666.79,-178 676.79,-181.5 676.79,-174.5"/>
</g>
<!-- UsersModule&#45;&gt;AppModule -->
<g id="edge3" class="edge">
<title>UsersModule&#45;&gt;AppModule</title>
<path fill="none" stroke="black" d="M742.86,-122.13C742.86,-132.71 742.86,-144 742.86,-144 742.86,-144 489.94,-144 489.94,-144 489.94,-144 489.94,-144.98 489.94,-144.98"/>
<polygon fill="black" stroke="black" points="486.44,-143.79 489.94,-153.79 493.44,-143.79 486.44,-143.79"/>
</g>
<!-- UsersService  -->
<g id="node9" class="node">
<title>UsersService </title>
<polygon fill="#fb8072" stroke="black" points="1079.85,-190 986.15,-190 986.15,-154 1079.85,-154 1079.85,-190"/>
<text text-anchor="middle" x="1033" y="-167.8" font-family="Times,serif" font-size="14.00">UsersService </text>
</g>
<!-- UsersModule&#45;&gt;UsersService  -->
<g id="edge10" class="edge">
<title>UsersModule&#45;&gt;UsersService </title>
<path fill="none" stroke="black" stroke-dasharray="5,2" d="M797.77,-104C877.4,-104 1033,-104 1033,-104 1033,-104 1033,-143.78 1033,-143.78"/>
<polygon fill="black" stroke="black" points="1029.5,-143.78 1033,-153.78 1036.5,-143.78 1029.5,-143.78"/>
</g>
<!-- AppService -->
<g id="node5" class="node">
<title>AppService</title>
<ellipse fill="#fdb462" stroke="black" cx="465" cy="-104" rx="56.74" ry="18"/>
<text text-anchor="middle" x="465" y="-99.8" font-family="Times,serif" font-size="14.00">AppService</text>
</g>
<!-- AppService&#45;&gt;AppModule -->
<g id="edge4" class="edge">
<title>AppService&#45;&gt;AppModule</title>
<path fill="none" stroke="black" d="M462.06,-122.22C462.06,-122.22 462.06,-143.73 462.06,-143.73"/>
<polygon fill="black" stroke="black" points="458.56,-143.73 462.06,-153.73 465.56,-143.73 458.56,-143.73"/>
</g>
<!-- AuthService -->
<g id="node7" class="node">
<title>AuthService</title>
<ellipse fill="#fdb462" stroke="black" cx="83" cy="-172" rx="59.11" ry="18"/>
<text text-anchor="middle" x="83" y="-167.8" font-family="Times,serif" font-size="14.00">AuthService</text>
</g>
<!-- AuthService&#45;&gt;AuthModule -->
<g id="edge6" class="edge">
<title>AuthService&#45;&gt;AuthModule</title>
<path fill="none" stroke="black" d="M83,-153.78C83,-133.63 83,-104 83,-104 83,-104 286.4,-104 286.4,-104"/>
<polygon fill="black" stroke="black" points="286.4,-107.5 296.4,-104 286.4,-100.5 286.4,-107.5"/>
</g>
<!-- PostsService -->
<g id="node8" class="node">
<title>PostsService</title>
<ellipse fill="#fdb462" stroke="black" cx="622" cy="-104" rx="60.27" ry="18"/>
<text text-anchor="middle" x="622" y="-99.8" font-family="Times,serif" font-size="14.00">PostsService</text>
</g>
<!-- PostsService&#45;&gt;PostsModule -->
<g id="edge8" class="edge">
<title>PostsService&#45;&gt;PostsModule</title>
<path fill="none" stroke="black" d="M622,-122.22C622,-122.22 622,-143.73 622,-143.73"/>
<polygon fill="black" stroke="black" points="618.5,-143.73 622,-153.73 625.5,-143.73 618.5,-143.73"/>
</g>
<!-- UsersService -->
<g id="node10" class="node">
<title>UsersService</title>
<ellipse fill="#fdb462" stroke="black" cx="900" cy="-172" rx="61.95" ry="18"/>
<text text-anchor="middle" x="900" y="-167.8" font-family="Times,serif" font-size="14.00">UsersService</text>
</g>
<!-- UsersService&#45;&gt;UsersModule -->
<g id="edge11" class="edge">
<title>UsersService&#45;&gt;UsersModule</title>
<path fill="none" stroke="black" d="M841.48,-166C810.76,-166 779.43,-166 779.43,-166 779.43,-166 779.43,-132.27 779.43,-132.27"/>
<polygon fill="black" stroke="black" points="782.93,-132.27 779.43,-122.27 775.93,-132.27 782.93,-132.27"/>
</g>
</g>
</svg>
